<svg width="86" height="86" viewBox="0 0 86 86" fill="none" xmlns="http://www.w3.org/2000/svg">
<g filter="url(#filter0_d)">
<mask id="path-1-inside-1" fill="white">
<path d="M13.4375 35.1953V74.375C13.4375 75.0795 13.7206 75.7551 14.2247 76.2533C14.7287 76.7514 15.4122 77.0312 16.125 77.0312H32.25V54.4531C32.25 53.3964 32.6747 52.383 33.4307 51.6357C34.1867 50.8885 35.2121 50.4688 36.2812 50.4688H49.7188C50.7879 50.4688 51.8133 50.8885 52.5693 51.6357C53.3253 52.383 53.75 53.3964 53.75 54.4531V77.0312H69.875C70.5878 77.0312 71.2713 76.7514 71.7754 76.2533C72.2794 75.7551 72.5625 75.0795 72.5625 74.375V35.1953"/>
</mask>
<path d="M15.4375 35.1953C15.4375 34.0907 14.5421 33.1953 13.4375 33.1953C12.3329 33.1953 11.4375 34.0907 11.4375 35.1953H15.4375ZM32.25 77.0312V79.0312C33.3546 79.0312 34.25 78.1358 34.25 77.0312H32.25ZM53.75 77.0312H51.75C51.75 78.1358 52.6454 79.0312 53.75 79.0312V77.0312ZM74.5625 35.1953C74.5625 34.0907 73.6671 33.1953 72.5625 33.1953C71.4579 33.1953 70.5625 34.0907 70.5625 35.1953H74.5625ZM11.4375 35.1953V74.375H15.4375V35.1953H11.4375ZM11.4375 74.375C11.4375 75.6175 11.9371 76.8043 12.8187 77.6757L15.6306 74.8308C15.5042 74.7059 15.4375 74.5415 15.4375 74.375H11.4375ZM12.8187 77.6757C13.6996 78.5463 14.8893 79.0312 16.125 79.0312V75.0312C15.9352 75.0312 15.7577 74.9565 15.6306 74.8308L12.8187 77.6757ZM16.125 79.0312H32.25V75.0312H16.125V79.0312ZM34.25 77.0312V54.4531H30.25V77.0312H34.25ZM34.25 54.4531C34.25 53.9344 34.4583 53.4322 34.8366 53.0582L32.0248 50.2133C30.8912 51.3337 30.25 52.8584 30.25 54.4531H34.25ZM34.8366 53.0582C35.2158 52.6834 35.735 52.4688 36.2812 52.4688V48.4688C34.6892 48.4688 33.1576 49.0936 32.0248 50.2133L34.8366 53.0582ZM36.2812 52.4688H49.7188V48.4688H36.2812V52.4688ZM49.7188 52.4688C50.265 52.4688 50.7842 52.6834 51.1634 53.0582L53.9752 50.2133C52.8424 49.0936 51.3108 48.4688 49.7188 48.4688V52.4688ZM51.1634 53.0582C51.5417 53.4322 51.75 53.9344 51.75 54.4531H55.75C55.75 52.8584 55.1088 51.3337 53.9752 50.2133L51.1634 53.0582ZM51.75 54.4531V77.0312H55.75V54.4531H51.75ZM53.75 79.0312H69.875V75.0312H53.75V79.0312ZM69.875 79.0312C71.1107 79.0312 72.3004 78.5463 73.1813 77.6757L70.3694 74.8308C70.2423 74.9565 70.0648 75.0312 69.875 75.0312V79.0312ZM73.1813 77.6757C74.0629 76.8043 74.5625 75.6175 74.5625 74.375H70.5625C70.5625 74.5415 70.4958 74.7059 70.3694 74.8308L73.1813 77.6757ZM74.5625 74.375V35.1953H70.5625V74.375H74.5625Z" fill="#D23E3E" mask="url(#path-1-inside-1)"/>
<mask id="path-3-inside-2" fill="white">
<path d="M80.625 42.5L44.8292 8.63284C43.9893 7.75628 42.0258 7.74632 41.1708 8.63284L5.375 42.5"/>
</mask>
<path d="M79.2505 43.9528C80.0528 44.712 81.3187 44.6769 82.0778 43.8746C82.8369 43.0722 82.8019 41.8064 81.9995 41.0472L79.2505 43.9528ZM44.8292 8.63284L43.385 10.0165C43.4077 10.0401 43.4309 10.0632 43.4546 10.0857L44.8292 8.63284ZM41.1708 8.63284L42.5454 10.0857C42.5675 10.0647 42.5892 10.0432 42.6104 10.0212L41.1708 8.63284ZM4.00047 41.0472C3.1981 41.8064 3.16306 43.0722 3.92219 43.8746C4.68132 44.6769 5.94717 44.712 6.74953 43.9528L4.00047 41.0472ZM81.9995 41.0472L46.2037 7.18003L43.4546 10.0857L79.2505 43.9528L81.9995 41.0472ZM46.2733 7.2492C45.3519 6.28748 44.0438 5.97352 43.0092 5.97169C41.9722 5.96985 40.6609 6.28046 39.7312 7.24449L42.6104 10.0212C42.5604 10.0731 42.5514 10.056 42.6401 10.0253C42.7253 9.99571 42.8523 9.97142 43.0021 9.97168C43.152 9.97195 43.2788 9.99671 43.3633 10.0263C43.4519 10.0573 43.4394 10.0732 43.385 10.0165L46.2733 7.2492ZM39.7963 7.18003L4.00047 41.0472L6.74953 43.9528L42.5454 10.0857L39.7963 7.18003Z" fill="#D23E3E" mask="url(#path-3-inside-2)"/>
<mask id="path-5-inside-3" fill="white">
<path d="M67.1875 29.7168V10.625H59.125V22.0801"/>
</mask>
<path d="M65.1875 29.7168C65.1875 30.8214 66.0829 31.7168 67.1875 31.7168C68.2921 31.7168 69.1875 30.8214 69.1875 29.7168H65.1875ZM67.1875 10.625H69.1875C69.1875 9.52043 68.2921 8.625 67.1875 8.625V10.625ZM59.125 10.625V8.625C58.0204 8.625 57.125 9.52043 57.125 10.625H59.125ZM57.125 22.0801C57.125 23.1846 58.0204 24.0801 59.125 24.0801C60.2296 24.0801 61.125 23.1846 61.125 22.0801H57.125ZM69.1875 29.7168V10.625H65.1875V29.7168H69.1875ZM67.1875 8.625H59.125V12.625H67.1875V8.625ZM57.125 10.625V22.0801H61.125V10.625H57.125Z" fill="#D23E3E" mask="url(#path-5-inside-3)"/>
</g>
<defs>
<filter id="filter0_d" x="-4" y="0" width="94" height="93" filterUnits="userSpaceOnUse" color-interpolation-filters="sRGB">
<feFlood flood-opacity="0" result="BackgroundImageFix"/>
<feColorMatrix in="SourceAlpha" type="matrix" values="0 0 0 0 0 0 0 0 0 0 0 0 0 0 0 0 0 0 127 0"/>
<feOffset dy="4"/>
<feGaussianBlur stdDeviation="2"/>
<feColorMatrix type="matrix" values="0 0 0 0 0 0 0 0 0 0 0 0 0 0 0 0 0 0 0.25 0"/>
<feBlend mode="normal" in2="BackgroundImageFix" result="effect1_dropShadow"/>
<feBlend mode="normal" in="SourceGraphic" in2="effect1_dropShadow" result="shape"/>
</filter>
</defs>
</svg>
