<svg width="128" height="120" viewBox="0 0 128 120" fill="none" xmlns="http://www.w3.org/2000/svg">
<path d="M0 0H128V103L67 120L0 103V0Z" fill="white"/>
<path d="M0.0969238 19.8795L128 0V103.373L66.4567 120L0.0969238 103.373V19.8795Z" fill="black"/>
<path d="M0.0969238 11.5L82 0H103.383L78.6315 4.26877L53.8804 8.53755L0.0969238 15.6522V11.5Z" fill="black"/>
<path d="M0 0H62L0 8V0Z" fill="black"/>
<path d="M25.5231 51.5681H24.754C24.6105 51.0281 24.3097 50.4504 23.8517 49.8352C23.4005 49.22 22.9664 48.8816 22.5495 48.8201C22.3375 48.7927 22.0846 48.7722 21.7907 48.7585C21.5036 48.7449 21.1754 48.738 20.8063 48.738H18.3659V54.5828H20.0372C20.5431 54.5828 20.9362 54.5315 21.2164 54.429C21.4967 54.3196 21.736 54.1555 21.9342 53.9368C22.0709 53.7864 22.194 53.554 22.3034 53.2395C22.4196 52.9182 22.4948 52.5764 22.5289 52.2141H23.3082V57.9255H22.5289C22.5084 57.6248 22.4367 57.283 22.3136 56.9001C22.1974 56.5173 22.0709 56.2405 21.9342 56.0696C21.7291 55.8167 21.4694 55.6458 21.1549 55.5569C20.8473 55.4612 20.4747 55.4133 20.0372 55.4133H18.3659V60.4275C18.3659 60.6531 18.4103 60.8547 18.4992 61.0325C18.588 61.2102 18.7453 61.3538 18.9708 61.4631C19.0734 61.511 19.2955 61.5691 19.6373 61.6375C19.9791 61.7058 20.2389 61.7434 20.4166 61.7502V62.4783H14.1105V61.7502C14.3156 61.7366 14.589 61.7161 14.9308 61.6887C15.2726 61.6545 15.4948 61.6135 15.5973 61.5657C15.8024 61.4768 15.9494 61.3469 16.0382 61.176C16.1339 60.9983 16.1818 60.7864 16.1818 60.5403V50.0403C16.1818 49.8147 16.1442 49.6165 16.069 49.4456C15.9938 49.2678 15.8366 49.1243 15.5973 49.0149C15.4127 48.926 15.1632 48.8474 14.8488 48.7791C14.5412 48.7107 14.2951 48.6697 14.1105 48.656V47.928H25.5231V51.5681ZM41.5397 48.656C41.3483 48.6628 41.068 48.7039 40.6989 48.7791C40.3297 48.8542 40.0289 48.967 39.7965 49.1174C39.5641 49.2747 39.4035 49.5994 39.3146 50.0916C39.2257 50.5837 39.1813 51.1853 39.1813 51.8962V58.2229C39.1813 59.0295 39.0138 59.7302 38.6788 60.325C38.3439 60.9197 37.903 61.4084 37.3561 61.7913C36.8161 62.1604 36.2453 62.4236 35.6437 62.5808C35.049 62.7449 34.4782 62.8269 33.9313 62.8269C33.0563 62.8269 32.277 62.7107 31.5934 62.4783C30.9098 62.2527 30.3356 61.9451 29.8707 61.5554C29.4127 61.1658 29.0675 60.7214 28.8351 60.2224C28.6027 59.7166 28.4865 59.1902 28.4865 58.6433V50.0403C28.4865 49.801 28.4454 49.6028 28.3634 49.4456C28.2882 49.2815 28.131 49.1311 27.8917 48.9944C27.7208 48.8987 27.5021 48.8235 27.2355 48.7688C26.9689 48.7073 26.7501 48.6697 26.5792 48.656V47.928H32.6393V48.656C32.4479 48.6628 32.2052 48.6936 31.9113 48.7483C31.6242 48.803 31.4122 48.8542 31.2755 48.9021C31.0431 48.9841 30.8859 49.1208 30.8038 49.3123C30.7287 49.5037 30.6911 49.7122 30.6911 49.9377V57.9768C30.6911 58.3665 30.7321 58.7766 30.8141 59.2073C30.903 59.6311 31.0739 60.0276 31.3268 60.3967C31.5934 60.7727 31.9557 61.0803 32.4137 61.3196C32.8717 61.5588 33.5006 61.6785 34.3004 61.6785C35.0524 61.6785 35.6813 61.5588 36.1871 61.3196C36.6998 61.0803 37.1032 60.7659 37.3971 60.3762C37.6774 60.0071 37.8756 59.6208 37.9918 59.2175C38.108 58.8142 38.1662 58.4075 38.1662 57.9973V52.0295C38.1662 51.2708 38.1115 50.6521 38.0021 50.1736C37.8927 49.6882 37.7321 49.3704 37.5202 49.22C37.2809 49.0491 36.9528 48.9158 36.5358 48.8201C36.1256 48.7244 35.8112 48.6697 35.5924 48.656V47.928H41.5397V48.656ZM56.8898 62.4783H52.9728C52.1046 61.1179 51.3185 59.9421 50.6144 58.9509C49.9171 57.9597 49.1583 56.9377 48.338 55.885H46.8512V60.4993C46.8512 60.7385 46.8888 60.9504 46.964 61.135C47.0392 61.3127 47.1998 61.4495 47.4459 61.5452C47.569 61.593 47.7843 61.6375 48.0919 61.6785C48.3996 61.7195 48.6593 61.7434 48.8712 61.7502V62.4783H42.7189V61.7502C42.8829 61.7366 43.1188 61.7126 43.4264 61.6785C43.7409 61.6443 43.9596 61.5999 44.0827 61.5452C44.2877 61.4563 44.4347 61.3264 44.5236 61.1555C44.6193 60.9846 44.6671 60.7659 44.6671 60.4993V49.9788C44.6671 49.7395 44.6329 49.5276 44.5646 49.343C44.4962 49.1584 44.3356 49.0183 44.0827 48.9226C43.9118 48.8611 43.6896 48.8064 43.4162 48.7585C43.1427 48.7039 42.9103 48.6697 42.7189 48.656V47.928H49.4352C50.0504 47.928 50.6281 47.9929 51.1681 48.1228C51.7081 48.2458 52.1969 48.4475 52.6344 48.7278C53.0582 49.0012 53.3966 49.3601 53.6496 49.8044C53.9025 50.2419 54.0289 50.7717 54.0289 51.3938C54.0289 51.9543 53.9435 52.45 53.7726 52.8806C53.6017 53.3113 53.3488 53.6838 53.0138 53.9983C52.7062 54.2922 52.3371 54.5486 51.9064 54.7673C51.4757 54.9792 51.0006 55.1604 50.4811 55.3108C51.1989 56.261 51.7936 57.0608 52.2653 57.7102C52.7438 58.3596 53.3283 59.1492 54.0187 60.0789C54.3195 60.489 54.5895 60.7932 54.8288 60.9915C55.0748 61.1829 55.3175 61.3401 55.5568 61.4631C55.7345 61.552 55.9567 61.6204 56.2233 61.6682C56.4899 61.7161 56.7121 61.7434 56.8898 61.7502V62.4783ZM51.4962 51.6296C51.4962 50.7478 51.2433 50.0505 50.7374 49.5378C50.2316 49.0183 49.5172 48.7585 48.5944 48.7585H46.8512V55.0032H48.1945C49.1378 55.0032 49.924 54.7024 50.5529 54.1008C51.1818 53.4924 51.4962 52.6687 51.4962 51.6296ZM69.2868 51.8757H68.5792C68.5177 51.6296 68.4049 51.3391 68.2409 51.0042C68.0836 50.6624 67.9059 50.3411 67.7077 50.0403C67.5026 49.7258 67.277 49.4524 67.0309 49.22C66.7916 48.9807 66.5592 48.844 66.3336 48.8098C66.1217 48.7825 65.8551 48.762 65.5338 48.7483C65.2125 48.7346 64.9152 48.7278 64.6417 48.7278H64.047V60.366C64.047 60.5916 64.0949 60.8 64.1906 60.9915C64.2863 61.176 64.4538 61.3196 64.693 61.4221C64.8161 61.47 65.0724 61.5349 65.4621 61.6169C65.8585 61.699 66.1662 61.7434 66.3849 61.7502V62.4783H59.5148V61.7502C59.7062 61.7366 59.9967 61.7092 60.3864 61.6682C60.7829 61.6272 61.0563 61.5759 61.2067 61.5144C61.4323 61.4255 61.5963 61.2991 61.6989 61.135C61.8082 60.9641 61.8629 60.7385 61.8629 60.4583V48.7278H61.2682C61.0563 48.7278 60.7931 48.7346 60.4787 48.7483C60.1642 48.7551 59.8634 48.7756 59.5763 48.8098C59.3507 48.8372 59.1149 48.9739 58.8688 49.22C58.6295 49.4592 58.4074 49.7327 58.2023 50.0403C57.9972 50.3479 57.8161 50.676 57.6588 51.0247C57.5016 51.3665 57.3922 51.6501 57.3307 51.8757H56.6129V47.928H69.2868V51.8757ZM82.6989 58.1921L82.422 62.4783H70.3429V61.7502C70.548 61.7366 70.8214 61.7092 71.1632 61.6682C71.505 61.6204 71.7272 61.5725 71.8297 61.5247C72.0485 61.4221 72.1989 61.2888 72.2809 61.1248C72.3698 60.9607 72.4142 60.7522 72.4142 60.4993V50.0403C72.4142 49.8147 72.3766 49.6165 72.3014 49.4456C72.2262 49.2678 72.069 49.1243 71.8297 49.0149C71.6452 48.926 71.3956 48.8474 71.0812 48.7791C70.7736 48.7107 70.5275 48.6697 70.3429 48.656V47.928H81.6017V51.4348H80.8327C80.6959 50.9153 80.3986 50.365 79.9406 49.7839C79.4894 49.196 79.0587 48.8748 78.6486 48.8201C78.4367 48.7927 78.1837 48.7722 77.8898 48.7585C77.5958 48.7449 77.2609 48.738 76.8849 48.738H74.5983V54.5212H76.2389C76.7653 54.5212 77.1481 54.4734 77.3873 54.3777C77.6334 54.2751 77.8488 54.1077 78.0333 53.8752C78.1837 53.677 78.3102 53.4138 78.4127 53.0857C78.5221 52.7507 78.5939 52.4363 78.6281 52.1423H79.3971V57.8333H78.6281C78.6007 57.5051 78.5255 57.1599 78.4025 56.7976C78.2863 56.4285 78.1632 56.1619 78.0333 55.9978C77.8214 55.7312 77.5788 55.5569 77.3053 55.4749C77.0387 55.3928 76.6832 55.3518 76.2389 55.3518H74.5983V59.72C74.5983 60.1575 74.629 60.5027 74.6906 60.7556C74.7521 61.0085 74.8717 61.2 75.0495 61.3298C75.2272 61.4597 75.4699 61.5452 75.7775 61.5862C76.0851 61.6204 76.5226 61.6375 77.09 61.6375C77.3156 61.6375 77.6129 61.6375 77.9821 61.6375C78.3512 61.6375 78.6622 61.6238 78.9152 61.5964C79.1749 61.5691 79.4415 61.5212 79.715 61.4529C79.9953 61.3777 80.1935 61.2786 80.3097 61.1555C80.6242 60.8274 80.9523 60.3318 81.2941 59.6687C81.6427 58.9988 81.8649 58.5066 81.9606 58.1921H82.6989ZM90.5944 62.8167C89.7262 62.8167 88.8922 62.6458 88.0924 62.304C87.2995 61.9622 86.5954 61.47 85.9801 60.8274C85.3717 60.1848 84.8864 59.4021 84.5241 58.4792C84.1618 57.5496 83.9806 56.5037 83.9806 55.3416C83.9806 54.1794 84.1583 53.1267 84.5138 52.1833C84.8693 51.2332 85.3615 50.4163 85.9904 49.7327C86.6124 49.0559 87.3473 48.533 88.195 48.1638C89.0426 47.7947 89.9484 47.6101 90.9122 47.6101C91.63 47.6101 92.2794 47.699 92.8605 47.8767C93.4415 48.0544 93.9953 48.304 94.5216 48.6252L94.942 47.928H95.7623L95.8546 53.1165H95.0138C94.9044 52.6106 94.7404 52.0637 94.5216 51.4758C94.3029 50.8811 94.0465 50.3787 93.7526 49.9685C93.4245 49.5037 93.0348 49.1414 92.5836 48.8816C92.1325 48.615 91.6163 48.4817 91.0353 48.4817C90.3722 48.4817 89.7536 48.6287 89.1793 48.9226C88.612 49.2166 88.1198 49.6506 87.7028 50.2249C87.3063 50.7786 86.9953 51.4827 86.7697 52.3372C86.5441 53.1917 86.4313 54.1453 86.4313 55.198C86.4313 56.1277 86.5475 56.9822 86.7799 57.7615C87.0192 58.5339 87.3576 59.2141 87.7951 59.802C88.2326 60.3831 88.7487 60.8376 89.3434 61.1658C89.945 61.4939 90.6149 61.658 91.3532 61.658C91.9069 61.658 92.4162 61.5725 92.881 61.4016C93.3458 61.2239 93.7492 60.9915 94.091 60.7043C94.4328 60.4036 94.7335 60.0618 94.9933 59.679C95.2531 59.2961 95.465 58.8792 95.629 58.428L96.3981 58.7971C95.8102 60.2395 95.0309 61.2717 94.0602 61.8938C93.0895 62.509 91.9342 62.8167 90.5944 62.8167ZM112.743 62.4783H106.703V61.7502C106.867 61.7366 107.103 61.7161 107.411 61.6887C107.725 61.6614 107.941 61.6204 108.057 61.5657C108.262 61.4836 108.412 61.3606 108.508 61.1965C108.604 61.0256 108.652 60.8069 108.652 60.5403V55.3621H101.812V60.4275C101.812 60.6667 101.85 60.8684 101.925 61.0325C102.007 61.1965 102.164 61.3401 102.397 61.4631C102.513 61.5247 102.718 61.5862 103.012 61.6477C103.313 61.7092 103.548 61.7434 103.719 61.7502V62.4783H97.6798V61.7502C97.8439 61.7366 98.0797 61.7161 98.3873 61.6887C98.7018 61.6614 98.9171 61.6204 99.0333 61.5657C99.2384 61.4836 99.3888 61.3606 99.4845 61.1965C99.5802 61.0256 99.6281 60.8069 99.6281 60.5403V50.0403C99.6281 49.8215 99.5836 49.6233 99.4948 49.4456C99.4059 49.261 99.2521 49.1174 99.0333 49.0149C98.8488 48.926 98.6232 48.8474 98.3566 48.7791C98.0968 48.7107 97.8712 48.6697 97.6798 48.656V47.928H103.719V48.656C103.528 48.6628 103.292 48.6936 103.012 48.7483C102.738 48.803 102.533 48.8542 102.397 48.9021C102.164 48.9841 102.007 49.1208 101.925 49.3123C101.85 49.5037 101.812 49.7122 101.812 49.9377V54.4495H108.652V50.0403C108.652 49.8215 108.607 49.6233 108.518 49.4456C108.429 49.261 108.276 49.1174 108.057 49.0149C107.872 48.926 107.647 48.8474 107.38 48.7791C107.12 48.7107 106.895 48.6697 106.703 48.656V47.928H112.743V48.656C112.551 48.6628 112.316 48.6936 112.035 48.7483C111.762 48.803 111.557 48.8542 111.42 48.9021C111.188 48.9841 111.03 49.1208 110.948 49.3123C110.873 49.5037 110.836 49.7122 110.836 49.9377V60.4275C110.836 60.6667 110.873 60.8684 110.948 61.0325C111.03 61.1965 111.188 61.3401 111.42 61.4631C111.536 61.5247 111.741 61.5862 112.035 61.6477C112.336 61.7092 112.572 61.7434 112.743 61.7502V62.4783Z" fill="#D23E3E"/>
</svg>
